<svg xmlns="http://www.w3.org/2000/svg" width="24" height="24" viewBox="0 0 24 24"><path d="M6.8 2.014a1.74 1.74 0 0 1 1.825 1.048l1.883 4.393a1.75 1.75 0 0 1-.138 1.65L8.887 11.36l.076.147a6.84 6.84 0 0 0 2.77 2.765l.148.076 2.22-1.482a1.7 1.7 0 0 1 .644-.268l.174-.025c.293-.027.588.021.85.136l4.378 1.88a1.74 1.74 0 0 1 1.057 1.829 5.5 5.5 0 0 1-5.454 4.8A13.75 13.75 0 0 1 2 7.469a5.5 5.5 0 0 1 4.8-5.454m.064 2.014-.037.007A3.5 3.5 0 0 0 4 7.469a11.75 11.75 0 0 0 11.75 11.75 3.5 3.5 0 0 0 3.47-3.056l-.031.191-4.084-1.754-2.226 1.488a1.75 1.75 0 0 1-.667.271l-.18.024a1.76 1.76 0 0 1-.887-.166 8.84 8.84 0 0 1-4.123-4.113 1.75 1.75 0 0 1 .111-1.716L8.62 8.127z"/></svg>