<svg width="24" height="24" viewBox="0 0 24 24" fill="none" xmlns="http://www.w3.org/2000/svg">
    <path fill-rule="evenodd" clip-rule="evenodd" d="M12 3.802c2.67 0 2.986.01 4.04.058.975.045 1.505.208 1.857.344a3.1 3.1 0 0 1 1.15.748c.35.35.566.684.748 1.15.137.353.3.882.344 1.857.048 1.055.058 1.37.058 4.04s-.009 2.987-.057 4.041c-.044.975-.207 1.505-.344 1.857a3.1 3.1 0 0 1-.748 1.15 3.1 3.1 0 0 1-1.15.748c-.352.137-.882.3-1.857.344-1.054.048-1.37.058-4.04.058s-2.988-.009-4.041-.057c-.975-.045-1.505-.207-1.857-.344a3.1 3.1 0 0 1-1.15-.748 3.1 3.1 0 0 1-.748-1.15c-.137-.353-.3-.882-.344-1.857-.048-1.055-.058-1.37-.058-4.04s.009-2.987.057-4.041c.045-.975.207-1.505.344-1.857a3.1 3.1 0 0 1 .748-1.15 3.1 3.1 0 0 1 1.15-.748c.353-.137.882-.3 1.857-.344 1.055-.048 1.37-.058 4.04-.058L12 3.802zM12 2c-2.716 0-3.056.012-4.123.06-1.067.048-1.791.218-2.427.465a4.894 4.894 0 0 0-1.772 1.153A4.894 4.894 0 0 0 2.525 5.45c-.247.636-.416 1.363-.465 2.427C2.011 8.941 2 9.284 2 12s.011 3.056.06 4.123c.049 1.067.218 1.791.465 2.427a4.897 4.897 0 0 0 1.153 1.772 4.894 4.894 0 0 0 1.772 1.153c.636.247 1.363.416 2.427.465 1.064.048 1.407.06 4.123.06s3.056-.012 4.123-.06c1.067-.049 1.791-.218 2.427-.465a4.902 4.902 0 0 0 1.772-1.153 4.894 4.894 0 0 0 1.153-1.772c.247-.636.416-1.363.465-2.427.048-1.064.06-1.407.06-4.123s-.012-3.056-.06-4.123c-.049-1.067-.218-1.791-.465-2.427a4.894 4.894 0 0 0-1.153-1.772 4.894 4.894 0 0 0-1.772-1.153c-.636-.247-1.363-.416-2.427-.465C15.059 2.011 14.716 2 12 2zm0 4.865A5.136 5.136 0 1 0 12 17.136 5.136 5.136 0 0 0 12 6.865zm0 8.468a3.334 3.334 0 1 1 0-6.668 3.334 3.334 0 0 1 0 6.668zm6.336-8.004a1.2 1.2 0 1 0-1.996-1.334 1.2 1.2 0 0 0 1.996 1.334z" fill="#000"/>
</svg>
