<svg width="24" height="24" viewBox="0 0 24 24" fill="none" xmlns="http://www.w3.org/2000/svg">
    <path fill-rule="evenodd" clip-rule="evenodd" d="M6.806 4.407a2.407 2.407 0 0 1-2.402 2.408A2.406 2.406 0 0 1 2 4.407 2.405 2.405 0 0 1 4.404 2a2.406 2.406 0 0 1 2.402 2.407zm6.41 10.984c0-1.742.331-3.43 2.488-3.43 2.125 0 2.154 1.992 2.154 3.542V22H22v-7.328c0-3.597-.775-6.364-4.972-6.364-2.017 0-3.369 1.108-3.922 2.158h-.055V8.64H9.075V22h4.142V15.39zm-6.741-6.75H2.33V22h4.145V8.64z" fill="#000"/>
</svg>
