<svg width="24" height="24" viewBox="0 0 24 24" fill="none" xmlns="http://www.w3.org/2000/svg">
    <path d="M9.607 15.184V8.857l5.47 3.098-5.47 3.229zm13.172-7.732s-.215-1.569-.873-2.258c-.835-.906-1.775-.913-2.204-.966C16.626 4 12.007 4 12.007 4h-.013S7.375 4 4.3 4.228c-.431.053-1.37.06-2.204.966-.66.69-.875 2.258-.875 2.258S1 9.294 1 11.134v1.725c0 1.843.22 3.683.22 3.683s.216 1.57.875 2.256c.834.908 1.937.88 2.423.976C6.279 19.947 12 20 12 20s4.625-.005 7.7-.235c.43-.055 1.37-.06 2.205-.966.658-.688.873-2.257.873-2.257s.221-1.84.221-3.683v-1.725c0-1.84-.22-3.682-.22-3.682z" fill="#000"/>
</svg>
