<svg xmlns="http://www.w3.org/2000/svg" width="109" height="32" viewBox="0 0 109 32" fill="none">
  <path d="M5.00675 30.8899C6.95112 31.63 8.81447 32 10.5968 32C13.5782 32 15.9438 31.4852 17.6938 30.4555C19.4437 29.4258 20.7075 28.0583 21.4853 26.3529C22.263 24.6154 22.6519 22.7009 22.6519 20.6094V0H2.67351V6.46757H14.8744V19.9819C14.8744 22.0412 14.4855 23.457 13.7078 24.2293C12.9301 24.9693 11.7958 25.3394 10.3052 25.3394C9.30057 25.3394 8.29597 25.0498 7.29138 24.4706C6.28679 23.8914 5.33081 23.087 4.42344 22.0573L0 26.8356C1.42587 28.7662 3.09479 30.1176 5.00675 30.8899Z" fill="#673AB7"/>
  <path d="M28.5412 31.4208V0H49.7834V6.46757H36.3186V12.0664H47.7904V18.5339H36.3186V24.9532H50.2695V31.4208H28.5412Z" fill="#673AB7"/>
  <path d="M53.5559 0L57.6391 31.4208H65.611L67.1665 22.2504C67.3285 21.2207 67.4744 20.191 67.604 19.1614C67.766 18.0995 67.8795 17.1021 67.9443 16.1689H68.0901C68.1549 17.1021 68.2521 18.0995 68.3817 19.1614L68.8678 22.2504L70.5205 31.4208H78.6869L82.4784 0H74.9926L74.3607 16.1689C74.3283 17.0377 74.3121 17.9065 74.3121 18.7753C74.3121 19.6119 74.2959 20.4806 74.2635 21.3816V24.1327H74.069C73.9394 23.1996 73.7774 22.2826 73.5829 21.3816C73.3885 20.4806 73.1941 19.5958 72.9996 18.727C72.8376 17.8582 72.6756 17.0055 72.5135 16.1689L70.715 7.9638H65.9999L64.0555 16.1689C63.8935 17.0377 63.7153 17.9226 63.5208 18.8235C63.3264 19.6923 63.132 20.5772 62.9375 21.4781C62.7755 22.3469 62.6297 23.2318 62.5 24.1327H62.3056C62.3056 23.2318 62.2894 22.3469 62.257 21.4781V18.8235C62.257 17.9226 62.2408 17.0377 62.2084 16.1689L61.5765 0H53.5559Z" fill="#673AB7"/>
  <path d="M87.4661 0V31.4208H109V24.9532H95.2436V0H87.4661Z" fill="#673AB7"/>
</svg>