<svg xmlns="http://www.w3.org/2000/svg" width="144" height="33" viewBox="0 0 144 33" fill="none">
  <path d="M11.4016 32.0001C21.8787 32.0001 26.54 27.4671 26.54 17.8452V0.910645H23.6321V17.8452C23.6321 25.5427 19.9544 29.1349 11.4016 29.1349H0.453979V32.0001H11.4016Z" fill="#673AB7"/>
  <path d="M59.1713 32.0001V29.1349H35.2234V3.77583H59.1285V0.910645H32.3155V32.0001H59.1713ZM57.9739 17.5031V14.8089H39.3288V17.5031H57.9739Z" fill="#673AB7"/>
  <path d="M94.0597 31.5297C94.359 32.1284 94.9577 32.4277 95.5992 32.4277C96.2407 32.4277 96.7966 32.1284 97.1387 31.5297L113.774 0.910645H110.524L95.6847 28.4507L81.2305 0.910645H77.7238L86.7043 17.6741L80.7601 28.4507L66.0065 0.910645H62.5854L79.1351 31.5297C79.4772 32.1284 80.0331 32.4277 80.6746 32.4277C81.316 32.4277 81.872 32.1284 82.2141 31.5297L88.1583 20.4966L94.0597 31.5297Z" fill="#673AB7"/>
  <path d="M143.371 32.0001V29.1349H120.877V0.910645H117.969V32.0001H143.371Z" fill="#673AB7"/>
</svg>