<svg width="24" height="24" viewBox="0 0 24 24" fill="none" xmlns="http://www.w3.org/2000/svg">
    <path fill-rule="evenodd" clip-rule="evenodd" d="M23 5.13a8.974 8.974 0 0 1-2.593.716 4.551 4.551 0 0 0 1.985-2.514 8.998 8.998 0 0 1-2.866 1.103A4.507 4.507 0 0 0 16.232 3c-2.494 0-4.514 2.035-4.514 4.544 0 .349.039.696.117 1.036C8.084 8.39 4.758 6.58 2.53 3.832a4.576 4.576 0 0 0-.494 3.311A4.55 4.55 0 0 0 3.928 9.9a4.473 4.473 0 0 1-2.044-.569v.057a4.54 4.54 0 0 0 3.62 4.456 4.498 4.498 0 0 1-2.038.078c.288.903.85 1.692 1.606 2.258.756.566 1.668.88 2.61.898A9.018 9.018 0 0 1 1 18.958 12.713 12.713 0 0 0 7.919 21c8.302 0 12.842-6.924 12.842-12.929 0-.197-.005-.393-.013-.588A9.209 9.209 0 0 0 23 5.131z" fill="#000"/>
</svg>
