<svg xmlns="http://www.w3.org/2000/svg" width="24" height="24" viewBox="0 0 24 24"><path d="M7.775 5.846C8.905 4.657 10.425 4 12 4s3.095.657 4.225 1.846C17.356 7.036 18 8.66 18 10.364c0 2.48-1.536 4.901-3.243 6.796A23 23 0 0 1 12 19.745a23.143 23.143 0 0 1-2.757-2.585C7.536 15.265 6 12.844 6 10.364c0-1.704.644-3.328 1.775-4.518m3.65 15.972L12 21zl.574.402.574-.402L12 21c.574.819.574.819.575.818l.002-.001.006-.004.018-.014a10 10 0 0 0 .305-.225 25.156 25.156 0 0 0 3.337-3.075C18.036 16.508 20 13.61 20 10.364c0-2.203-.831-4.324-2.326-5.896C16.18 2.894 14.14 2 12 2s-4.179.894-5.675 2.468C4.831 6.04 4 8.16 4 10.364c0 3.246 1.964 6.144 3.757 8.135a25 25 0 0 0 3.337 3.075 15 15 0 0 0 .305.225l.018.014.006.004zM11 10a1 1 0 1 1 2 0 1 1 0 0 1-2 0m1-3a3 3 0 1 0 0 6 3 3 0 0 0 0-6"/></svg>